<svg width="14" height="16" viewBox="0 0 14 16" fill="none" xmlns="http://www.w3.org/2000/svg">
<path d="M10.233 9.97536C10.233 7.95621 8.57925 7.72612 7.25052 7.54154C5.80239 7.3399 4.983 7.16529 4.983 5.91842C4.983 4.87148 6.07985 4.5 7.01903 4.5C7.48714 4.48486 7.95214 4.58121 8.37569 4.78111C8.79924 4.981 9.16921 5.27872 9.45508 5.64971L10.1359 5.10029C9.82976 4.70663 9.44882 4.37736 9.01499 4.13141C8.58116 3.88545 8.103 3.72765 7.608 3.66709V2.3125H6.733V3.63462C5.15135 3.73052 4.108 4.62337 4.108 5.91837C4.108 7.98775 5.78362 8.22081 7.13003 8.40775C8.553 8.60585 9.358 8.7763 9.358 9.97536C9.358 11.302 7.98748 11.5 7.1705 11.5C5.67013 11.5 5.03628 11.0783 4.44842 10.3503L3.76758 10.8997C4.11442 11.3567 4.56302 11.7267 5.07778 11.9801C5.59253 12.2335 6.15926 12.3634 6.733 12.3596V13.6875H7.608V12.3554C9.23795 12.2223 10.233 11.3372 10.233 9.97536Z" fill="#6C6D75"/>
</svg>
