<svg width="14" height="16" viewBox="0 0 14 16" fill="none" xmlns="http://www.w3.org/2000/svg">
<path d="M4.625 2.875H4.5C4.56875 2.875 4.625 2.81875 4.625 2.75V2.875H9.375V2.75C9.375 2.81875 9.43125 2.875 9.5 2.875H9.375V4H10.5V2.75C10.5 2.19844 10.0516 1.75 9.5 1.75H4.5C3.94844 1.75 3.5 2.19844 3.5 2.75V4H4.625V2.875ZM12.5 4H1.5C1.22344 4 1 4.22344 1 4.5V5C1 5.06875 1.05625 5.125 1.125 5.125H2.06875L2.45469 13.2969C2.47969 13.8297 2.92031 14.25 3.45313 14.25H10.5469C11.0813 14.25 11.5203 13.8313 11.5453 13.2969L11.9313 5.125H12.875C12.9438 5.125 13 5.06875 13 5V4.5C13 4.22344 12.7766 4 12.5 4ZM10.4266 13.125H3.57344L3.19531 5.125H10.8047L10.4266 13.125Z" fill="#6C6D75"/>
</svg>
