<svg width="14" height="14" viewBox="0 0 14 14" fill="none" xmlns="http://www.w3.org/2000/svg">
<path d="M4.625 1.87357H4.5C4.56875 1.87357 4.625 1.81732 4.625 1.74857V1.87357H9.375V1.74857C9.375 1.81732 9.43125 1.87357 9.5 1.87357H9.375V2.99857H10.5V1.74857C10.5 1.197 10.0516 0.748566 9.5 0.748566H4.5C3.94844 0.748566 3.5 1.197 3.5 1.74857V2.99857H4.625V1.87357ZM12.5 2.99857H1.5C1.22344 2.99857 1 3.222 1 3.49857V3.99857C1 4.06732 1.05625 4.12357 1.125 4.12357H2.06875L2.45469 12.2954C2.47969 12.8283 2.92031 13.2486 3.45313 13.2486H10.5469C11.0813 13.2486 11.5203 12.8298 11.5453 12.2954L11.9313 4.12357H12.875C12.9438 4.12357 13 4.06732 13 3.99857V3.49857C13 3.222 12.7766 2.99857 12.5 2.99857ZM10.4266 12.1236H3.57344L3.19531 4.12357H10.8047L10.4266 12.1236Z" fill="#6C6D75"/>
</svg>
