<svg width="14" height="16" viewBox="0 0 14 16" fill="none" xmlns="http://www.w3.org/2000/svg">
<path d="M12.25 3.625H1.75C1.51794 3.625 1.29538 3.71719 1.13128 3.88128C0.967187 4.04538 0.875 4.26794 0.875 4.5V11.5C0.875 11.7321 0.967187 11.9546 1.13128 12.1187C1.29538 12.2828 1.51794 12.375 1.75 12.375H12.25C12.4821 12.375 12.7046 12.2828 12.8687 12.1187C13.0328 11.9546 13.125 11.7321 13.125 11.5V4.5C13.125 4.26794 13.0328 4.04538 12.8687 3.88128C12.7046 3.71719 12.4821 3.625 12.25 3.625ZM11.2875 4.5L7 7.46625L2.7125 4.5H11.2875ZM1.75 11.5V4.89812L6.75063 8.35875C6.82386 8.40956 6.91087 8.43678 7 8.43678C7.08913 8.43678 7.17614 8.40956 7.24937 8.35875L12.25 4.89812V11.5H1.75Z" fill="#6C6D75"/>
</svg>
